<?xml version="1.0" encoding="utf-8"?>
<!-- Generator: Adobe Illustrator 24.2.1, SVG Export Plug-In . SVG Version: 6.00 Build 0)  -->
<svg version="1.1" id="ed7093ed-6733-4751-8e44-d0b12615edd5"
	 xmlns="http://www.w3.org/2000/svg" xmlns:xlink="http://www.w3.org/1999/xlink" x="0px" y="0px" viewBox="0 0 32 32"
	 style="enable-background:new 0 0 32 32;" xml:space="preserve">
<path d="M7.7,20.2L7.7,20.2c0.7,0,1.2,0.5,1.2,1.2v8.8c0,0.7-0.5,1.2-1.2,1.2l0,0c-0.7,0-1.2-0.5-1.2-1.2v-8.8
	C6.5,20.7,7,20.2,7.7,20.2z"/>
<path d="M4.3,22.1v-4.6c0-0.3-0.3-0.6-0.6-0.6h0h-1c-0.3,0-0.6,0.3-0.6,0.6c0,0,0,0,0,0v9.8c0,0.3,0.3,0.6,0.6,0.6c0,0,0,0,0,0h0.7
	v0.9c0,0.3,0.3,0.6,0.6,0.6c0,0,0,0,0,0h1c0.3,0,0.6-0.3,0.6-0.6c0,0,0,0,0,0v-6.1c0-0.3-0.3-0.6-0.6-0.6H4.3z"/>
<path d="M1.2,22.7L1.2,22.7L1.2,22.7v4.6l0,0l0,0c-0.7,0-1.2-0.5-1.2-1.2v-2.2C0,23.3,0.5,22.7,1.2,22.7C1.2,22.7,1.2,22.7,1.2,22.7
	z"/>
<path d="M24.3,31.4L24.3,31.4c-0.7,0-1.2-0.5-1.2-1.2v-8.8c0-0.7,0.5-1.2,1.2-1.2h0c0.7,0,1.2,0.5,1.2,1.2v8.8
	C25.5,30.9,25,31.4,24.3,31.4z"/>
<path d="M27.7,22.1v-4.6c0-0.3,0.3-0.6,0.6-0.6l0,0h1c0.3,0,0.6,0.3,0.6,0.6c0,0,0,0,0,0v9.8c0,0.3-0.3,0.6-0.6,0.6c0,0,0,0,0,0
	h-0.7v0.9c0,0.3-0.3,0.6-0.6,0.6c0,0,0,0,0,0h-1c-0.3,0-0.6-0.3-0.6-0.6c0,0,0,0,0,0v-6.1c0-0.3,0.3-0.6,0.6-0.6c0,0,0,0,0,0
	L27.7,22.1z"/>
<path d="M30.8,27.4L30.8,27.4L30.8,27.4v-4.6l0,0l0,0c0.7,0,1.2,0.5,1.2,1.2v0v2.2C32,26.8,31.5,27.4,30.8,27.4L30.8,27.4L30.8,27.4
	z"/>
<path d="M29,16.1h-0.9c-0.3,0-0.6-0.2-0.6-0.5c-0.9-6.4-6.7-10.9-13.1-10c-5.2,0.7-9.3,4.8-10,10c0,0.3-0.3,0.5-0.6,0.5H2.9
	c-0.3,0-0.6-0.3-0.6-0.6c0,0,0-0.1,0-0.1c0.9-7.5,7.8-12.9,15.3-12c6.3,0.8,11.2,5.7,12,12C29.6,15.8,29.4,16.1,29,16.1
	C29,16.1,29,16.1,29,16.1z"/>
<path d="M10.9,3.2C10.9,3.2,10.9,3.2,10.9,3.2c-2-1.8-4.6-2.7-7.2-2.7c-0.2,0-0.3,0.1-0.3,0.3c-0.3,1-1.2,4.7,0.5,7.6
	c0,0.1,0.1,0.1,0.2,0.1c0,0,0,0,0.1-0.1c1.7-2.3,4-4,6.7-5C11,3.4,11,3.3,10.9,3.2z M7.6,3.6c-1,0.4-1.8,1-2.5,1.8c0,0,0,0,0,0
	C5,5.6,4.8,5.6,4.7,5.5c-0.4-1-0.4-2-0.1-3c0-0.1,0.1-0.2,0.2-0.2c1,0,2,0.3,2.8,1c0,0,0,0,0.1,0.1C7.7,3.4,7.7,3.6,7.6,3.6z"/>
<path d="M28.5,0.8c0-0.2-0.2-0.3-0.4-0.3c-2.6-0.1-5.2,0.9-7.2,2.6c0,0,0,0,0,0.1c0,0.1,0,0.2,0.1,0.2c2.7,1,5,2.7,6.7,5
	c0,0,0,0,0.1,0.1c0.1,0,0.2,0,0.2-0.1C29.6,5.5,28.8,1.8,28.5,0.8z M27.1,5.5c-0.1,0.1-0.2,0.1-0.3,0.1c0,0,0,0-0.1-0.1
	c-0.7-0.8-1.5-1.4-2.4-1.8c-0.1,0-0.2-0.2-0.1-0.3c0,0,0-0.1,0.1-0.1c0.8-0.7,1.8-1,2.8-1c0.1,0,0.2,0.1,0.2,0.2
	C27.5,3.4,27.5,4.5,27.1,5.5z"/>
</svg>
